<?xml version="1.0" encoding="UTF-8"?>
<svg id="Layer_1" data-name="Layer 1" xmlns="http://www.w3.org/2000/svg" xmlns:xlink="http://www.w3.org/1999/xlink" viewBox="0 0 906.54 214.5">
  <defs>
    <style>
      .cls-1 {
        fill: url(#linear-gradient-2);
      }

      .cls-2 {
        fill: url(#linear-gradient-4);
      }

      .cls-3 {
        fill: url(#linear-gradient-3);
      }

      .cls-4 {
        fill: url(#linear-gradient-5);
      }

      .cls-5 {
        fill: url(#linear-gradient-8);
      }

      .cls-6 {
        fill: #873d7f;
      }

      .cls-7 {
        fill: url(#linear-gradient-7);
      }

      .cls-8 {
        fill: url(#linear-gradient-9);
      }

      .cls-9 {
        fill: url(#linear-gradient-6);
      }

      .cls-10 {
        fill: #d37877;
      }

      .cls-11 {
        fill: #002e3b;
      }

      .cls-12 {
        fill: url(#linear-gradient);
      }
    </style>
    <linearGradient id="linear-gradient" x1="13.65" y1="711.15" x2="88.79" y2="711.15" gradientTransform="translate(0 806.32) scale(1 -1)" gradientUnits="userSpaceOnUse">
      <stop offset=".07" stop-color="#d37877"/>
      <stop offset=".26" stop-color="#ca7177"/>
      <stop offset=".57" stop-color="#b15e7a"/>
      <stop offset=".97" stop-color="#8a3f7e"/>
      <stop offset="1" stop-color="#873d7f"/>
    </linearGradient>
    <linearGradient id="linear-gradient-2" x1="6.1" y1="682.09" x2="90.81" y2="682.09" xlink:href="#linear-gradient"/>
    <linearGradient id="linear-gradient-3" x1="162.09" y1="682.35" x2="247.31" y2="682.35" gradientTransform="translate(0 806.32) scale(1 -1)" gradientUnits="userSpaceOnUse">
      <stop offset="0" stop-color="#873d7f"/>
      <stop offset=".03" stop-color="#8a3f7e"/>
      <stop offset=".43" stop-color="#b15e7a"/>
      <stop offset=".74" stop-color="#ca7177"/>
      <stop offset=".93" stop-color="#d37877"/>
    </linearGradient>
    <linearGradient id="linear-gradient-4" x1="164.53" y1="711.47" x2="239.6" y2="711.47" xlink:href="#linear-gradient-3"/>
    <linearGradient id="linear-gradient-5" x1="23.09" y1="639.79" x2="227.36" y2="639.79" gradientTransform="translate(0 806.32) scale(1 -1)" gradientUnits="userSpaceOnUse">
      <stop offset="0" stop-color="#d37877"/>
      <stop offset=".5" stop-color="#ac9dc2"/>
      <stop offset="1" stop-color="#d37877"/>
    </linearGradient>
    <linearGradient id="linear-gradient-6" x1="23.09" y1="707.76" x2="227.36" y2="707.76" xlink:href="#linear-gradient-5"/>
    <linearGradient id="linear-gradient-7" x1="23.09" y1="750.37" x2="227.36" y2="750.37" xlink:href="#linear-gradient-5"/>
    <linearGradient id="linear-gradient-8" x1="23.09" y1="703.42" x2="227.36" y2="703.42" xlink:href="#linear-gradient-5"/>
    <linearGradient id="linear-gradient-9" x1="23.09" y1="639.71" x2="227.36" y2="639.71" xlink:href="#linear-gradient-5"/>
  </defs>
  <g>
    <g>
      <path class="cls-6" d="M295.26,187.76c-.22-.17-.43-.33-.43-.82,0-.46.19-1.14.59-2.16,4.78-12.97,13.93-33.78,21.48-46.81,2.5-4.32,5.02-9.03,7.51-14.01,1.04-2.28,1.54-4.13,1.54-5.66,0-3.66-2.84-5.92-7.97-6.38-.62-.1-1.35-.1-2.06-.1-3.37,0-7.35.61-11.2,1.73-1.71.48-2.58,1.18-2.58,2.11,0,.5.37.97.96,1.2,1.11.3,2.04.51,2.79.61h.51c1.5,0,1.96-.68,2.33-1.23.07-.11.14-.21.22-.31,3.18-.79,5.84-1.2,7.89-1.2.26,0,.52.03.77.05.23.02.44.04.62.04h0c2.33.21,3.88.83,3.88,3.12-.33,2.1-.87,3.96-1.6,5.52-1.65,3.29-3.45,6.79-5.34,10.49-8.73,17.03-19.59,38.24-25.69,56.56v.06c0,1.2.76,2.01,2.02,2.12h.3c.63,0,1.44-.21,1.78-.79,1.72-2.26,2.07-3.04,2.07-3.57,0-.31-.2-.46-.38-.59h.01Z"/>
      <path class="cls-6" d="M350.81,188.96c0-.5.15-1.01.32-1.59l.08-.27c4.45-13.89,10.45-29,17.83-44.88l.04-.07c.48-.86.76-1.37,1.94-1.56,2.76-.35,5.08-.51,7.28-.51,1.83,0,3.56.09,5.39.19h.39c.68.01,1.11-1.06,1.11-1.8s-.36-1.21-.88-1.21h0c-1.63-.2-3.36-.2-4.89-.2-2.77,0-5.3.1-7.4.2-.31,0-.31-.13-.31-.21,0-.17.1-.46.18-.72,2.31-4.73,4.72-9.04,6.77-12.63.03-.03.07-.03.15-.03h.51c.5,0,1.05-.24,1.8-1.94,1.82-3.9,2.81-6.2,2.96-6.88v-.3c0-.92-.8-1.72-1.72-1.72-2.91,0-14.06,23.6-14.16,23.83-.59,1.1-1.43,1.3-3.1,1.68l-.61.14c-4.4.68-9.38,1.88-14.04,3.36-.54.22-.84.67-.84,1.3,0,.98.66,2.12,1.52,2.12.09,0,.17-.04.24-.07.02,0,.06-.03.06-.03h.07c3.89-1.47,7.96-2.6,12.47-3.46.27-.09.55-.09.85-.09s.82.04.82.3c0,0-.02.04-.03.07-.02.05-.06.11-.07.19-.05.1-.09.22-.14.33-.05.12-.1.24-.15.35l-.61,1.32c-.91,1.99-2.54,5.64-4.45,10.06-4.46,2.68-13.36,7.5-17.28,7.87-.17,0-.46,0-.62-.08l-.06-.02c-2.25-.28-2.29-3.97-2.32-7.53-.04-3.73-.08-7.58-2.77-7.58h-.24c-.51.09-1.28.27-2.19.84-4.18,2.19-11.92,12.33-14.49,15.7-.19.38-.34.4-.42.4,0-.02-.01-.06-.01-.11,0-.09,0-.16.09-.35,1.18-3.8,3.06-7.81,4.87-11.68.97-2.06,1.97-4.19,2.82-6.22.13-.15.13-.31.13-.41,0-.78-1.16-1.41-2.12-1.41h-.2c-.42,0-.76.17-.97.49-1.08,1.44-10.48,24.37-10.48,25.57,0,1.39,1.39,2.22,2.73,2.22h.23c.44-.06,1.53-.3,2.07-1.11,3.1-5.19,13.74-19.19,16.66-19.47h.16c.35.06.35,1.32.35,2.64v.91c0,3.68,0,10.54,5.77,10.54h.42c3.58-.31,11.26-4.15,16.05-6.95-5.28,12.47-11.59,28.39-11.59,32.91,0,1.17.65,1.82,1.82,1.82,1.32,0,2.93-.98,2.93-2.12,0-.32,0-.59-.25-.83-.31-.39-.47-.82-.47-1.3h.03Z"/>
      <path class="cls-6" d="M431.22,149.72c0-.82-.8-1.62-1.61-1.62-.32,0-.59,0-.85.26-.85.85-2.63,2.27-5.03,2.27s-4.67-1.34-7.06-4c-.81-.81-1.57-1.17-2.48-1.17-.84,0-1.78.38-2.65,1.05-2.44,1.76-5.51,5.96-7.65,9.18l-3.86,5.9c-.04.09-.09.16-.13.21.7-1.95,1.48-3.96,2.29-5.97.02-.04.04-.09.05-.13,1.78-4.44,3.73-8.89,5.64-12.79v-.02s.09-.11.16-.2c.47-.6,1.71-2.2,2.37-4.32.12-.15.12-.31.12-.51,0-.74-.59-1.82-1.52-1.82-.59,0-1.8.48-3.22,3.67-1.17,2.59-2.16,4.74-3.02,6.63-1.84,4.02-3.1,6.76-4.29,9.63-5.84,4.53-20.01,14.24-25.87,14.24-1.71,0-2.54-.83-2.54-2.54,0-.2,0-.48.1-.79.1-1.03.21-1.63,1.22-2.18,4.63-2.55,16.63-10.57,16.63-17,0-1.52-.91-2.43-2.43-2.43-7.74,0-19.46,16.55-19.46,23.32,0,2.99,2.13,5.17,5.07,5.17,5.77,0,17.37-6.79,25.42-13.03-.99,2.65-2.1,5.83-3.6,10.22-.28.75-.42,1.4-.42,2,0,1.32.79,1.92,1.52,1.92.42,0,.84-.17,1.34-.55.15-.12.64-.9,2.12-3.26,3.14-5.01,8.98-14.33,13.32-19.19.69-.92,2.02-2.46,3.18-2.46.08,0,.35.02.68.35,2.72,2.53,5.6,3.8,8.55,3.8,2.59,0,5.16-.93,7.44-2.69.32-.32.46-.67.46-1.15h0ZM383.47,149.41c.09,0,.1,0,.1.11,0,.62-1.05,2.39-3.38,4.92l-5.15,4.75c-.07.04-.2.13-.44.3-.5.35-1.81,1.25-2.16,1.29.03-.09.1-.22.14-.3,2.06-3.09,4.17-5.67,6.26-7.67,2.72-2.5,4.18-3.39,4.63-3.39h0Z"/>
      <path class="cls-6" d="M437.93,148.2h.21c2.18-.11,4.68-4.85,5.13-5.87.13-.15.13-.31.12-.46-.24-.96-1.38-1.47-2.12-1.47-.42,0-.76.17-.97.48-1.89,2.44-2.98,4.7-2.98,6.21v.41c0,.44.31.7.6.7h0Z"/>
      <path class="cls-6" d="M519.66,148.11c-.32,0-.59,0-.85.26-.85.85-2.63,2.27-5.03,2.27s-4.67-1.34-7.06-4c-.81-.81-1.57-1.17-2.48-1.17-.84,0-1.78.38-2.65,1.05-2.44,1.76-5.51,5.96-7.65,9.18l-3.86,5.9c-.04.09-.09.16-.13.21.55-1.53,1.14-3.1,1.76-4.68.32-.16.56-.56.56-1.03,0-.08-.03-.17-.04-.25,1.79-4.49,3.77-9,5.71-12.94v-.02s.09-.11.16-.2c.47-.6,1.71-2.2,2.37-4.32.12-.15.12-.31.12-.51,0-.74-.59-1.82-1.52-1.82-.59,0-1.8.48-3.22,3.67-1.17,2.59-2.16,4.74-3.02,6.63-1.72,3.76-2.94,6.41-4.06,9.09-1.67.76-3.45,1.24-5.31,1.4h-.81c-4.59,0-9.23-2.51-9.23-7.31,0-.51,0-1,.1-1.49.14-.83.21-1.6.21-2.36,0-1.21,0-4.05-2.33-4.05h-.35c-1.69.38-2.59,1.92-2.59,4.46,0,1.68.38,3.5.68,4.96l.13.63c-.8,5.6-6.82,17.64-11.66,17.94h-.2c-1.02,0-1.63-1.1-1.63-2.95,0-3.86,2.94-11.18,11.03-15.53.53-.21.84-.73.84-1.4,0-.88-.56-1.82-1.62-1.82h-.1c-.21,0-.45,0-.69.12-2.94,1.4-6.04,4.18-8.47,7.48-6.81,5.62-17.28,12.28-23.96,14.2-.58.19-1.08.29-1.46.29-1.28,0-1.93-.75-1.93-2.24,0-3.82,2.9-10.12,6.33-13.75.62-.62.97-.97.97-1.56,0-.95-1.02-1.92-2.03-1.92-.47,0-.82.23-1.12.44l-.03.03c-3.33,3.64-8.17,12.14-8.17,17.17,0,3.38,2.07,5.57,5.27,5.57.64,0,1.38-.16,2.15-.34l.34-.07c4.69-1.39,13.62-6.68,20.26-11.62-.64,1.76-1.04,3.54-1.04,5.24,0,3.01,1.31,4.97,3.81,5.67.51.1,1.03.2,1.57.2h0c5.9-.44,11.27-10.41,12.84-14.21.26-.62.47-1.13.63-1.54.28-.69.5-1.23.6-1.28.13,0,.42.27.75.58.18.17.39.37.64.59,2.15,1.78,4.99,2.68,8.44,2.68h1.23c1.53-.1,3.06-.37,4.51-.77-1.17,3.03-2.45,6.61-4.3,12.06-.28.75-.42,1.4-.42,2,0,1.32.79,1.92,1.52,1.92.42,0,.84-.17,1.34-.55.15-.12.64-.9,2.12-3.26,3.14-5.01,8.98-14.33,13.32-19.19.69-.92,2.02-2.46,3.18-2.46.08,0,.35.02.68.35,2.72,2.53,5.6,3.8,8.55,3.8,2.59,0,5.16-.93,7.44-2.69.32-.32.46-.67.46-1.15,0-.82-.8-1.62-1.61-1.62v.02Z"/>
      <path class="cls-6" d="M607.98,124.99h-2.54c-.8,0-1.1-.04-1.12-.48.1-.29.2-.57.48-1.05,1.65-2.99,2.28-3.35,2.69-3.59.46-.27.72-.49,1.39-2.24.1-.41.21-.83.21-1.15v-.41c0-1.34-.82-1.82-1.52-1.82-.65,0-1.19.3-1.57.88-.52.64-1.33,1.94-2.26,3.45-.71,1.15-1.52,2.47-2.32,3.67-1.31,2.02-2.18,3.26-3.5,3.36-10.66.93-21.15,2.91-31.17,5.89-28.12,8.55-31.27,18.74-31.57,21.68v.61c0,1.91.91,3.34,2.12,3.34.58,0,1.04-.24,1.44-.75.42-.31.69-.77.69-1.17v-.1c0-.47-.18-.87-.38-1.29-.21-.46-.43-.94-.43-1.55v-.3c0-.2.06-.76.67-1.61,8.89-12.23,37.71-19.26,54.9-21.01.2,0,.44-.02.7-.04.28-.02.56-.05.82-.05.82,0,.82.29.82.41v.2c0,.18-.1.55-.37,1.01-5.52,8.64-10.88,18.28-16.84,30.33-.69,1.34-2.95,2.85-5.8,4.76-4.52,3.03-10.72,7.17-15.07,13.57-2.35,3.53-3.14,6.18-3.38,7.82v.71c0,4.74,4.31,7.37,12.47,7.6h.51c11.34,0,32.62-6.91,51.75-16.81,22.15-11.46,35.47-23.65,36.56-33.47v-1.11c0-3.37-1.24-6.19-3.91-8.86-9.12-9.22-28.55-10.4-44.45-10.4h0ZM575.65,169.12c-.3.72-.72,1.73-1.21,2.91-1.91,4.58-4.8,11.51-5.69,14.24v.47c0,.85.82,1.31,1.61,1.31s1.68-.43,1.91-1.26c1.59-5.42,4.23-11.47,6.55-16.8.62-1.43,1.21-2.79,1.75-4.06,1.43-3.43,22.36-11.46,32.42-15.31,1.92-.74,3.58-1.37,4.68-1.81.74-.25.95-.9,1.05-1.4v-.2c0-.97-.53-1.62-1.32-1.62-.11,0-.35,0-.51.13-11.41,4.09-21.68,7.91-31.85,13.19-.3.2-.56.27-.7.27-.1,0-.21-.02-.22-.21,0-.01.03-.03.06-.06l.06-.06v-.34c2.95-6.49,12.04-22.1,15.98-28.12.76-1.13,1.51-1.84,2.88-1.84h8.62c15.01,0,31.44,1.26,39.49,10.57,1.23,1.52,1.88,3.29,1.88,5.15v.79c-.91,8.21-13.54,19.54-33.77,30.32-19.13,10.18-39.34,16.76-51.5,16.76-2.63,0-4.96-.31-6.73-.9-1.72-.57-2.7-1.8-2.7-3.36v-.47c1.34-6.94,11.34-15.09,16.43-18.42.34-.17.75-.38.91-.38.09,0,.1,0,.1.1,0,.06-.12.3-.19.43h0Z"/>
      <path class="cls-6" d="M717.31,148.2h.21c2.18-.11,4.68-4.85,5.13-5.87.13-.15.13-.31.12-.46-.24-.96-1.38-1.47-2.12-1.47-.42,0-.76.17-.97.48-1.89,2.44-2.98,4.7-2.98,6.21v.41c0,.44.31.7.6.7h0Z"/>
      <path class="cls-6" d="M818.21,153.78h-.2c-.11,0-.39,0-.61.23-4.34,2.63-13.62,7.71-17.64,8.08-.18,0-.46,0-.62-.08l-.06-.02c-2.25-.28-2.29-3.97-2.32-7.53-.04-3.73-.08-7.58-2.77-7.58h-.24c-.51.09-1.28.27-2.19.84-4.19,2.19-11.92,12.34-14.48,15.7-.19.38-.35.4-.42.4,0-.02-.01-.06-.01-.11,0-.09,0-.16.09-.35,1.18-3.8,3.05-7.8,4.86-11.67.97-2.07,1.97-4.2,2.82-6.23.13-.15.13-.31.13-.42,0-.76-1.17-1.41-2.12-1.41h-.2c-.42,0-.76.17-.97.49-.43.56-2.13,4.45-4.05,9.03-6.03,2.23-15.72,9.2-21.15,13.33-.1.06-.2.14-.3.22-.13.1-.33.25-.41.25h0c0-.09,0-.26.08-.42v-.02c2.44-7.2,3.77-11.31,5.09-19.02v-.17l.1-.64c0-1.53-.69-2.33-2.12-2.43-2.01-.05-2.71-.33-3.33-.57-.51-.2-.99-.39-2.06-.44h-.2c-5.11,0-11.43,5.83-16.24,11.83-6.78,5.71-17.64,12.67-24.49,14.65-.58.19-1.08.29-1.46.29-1.28,0-1.93-.75-1.93-2.24,0-3.82,2.9-10.12,6.33-13.75.62-.62.97-.97.97-1.56,0-.95-1.02-1.92-2.03-1.92-.47,0-.82.23-1.12.44l-.03.03c-.87.95-1.84,2.25-2.81,3.71l-14.91,7.5c-.34.17-.75.38-.91.38h-.1c-.35,0-.52-.27-.99-1.11l-.05-.1c-.46-.92-.94-1.79-1.41-2.64-1.32-2.38-2.45-4.44-2.53-6.4,0-1.23.43-2.28,1.37-3.42l.11-.13c.96-1.06,2.27-2.52,2.27-3.86,0-.41-.18-.85-.56-1.36-.26-.26-.63-.56-1.15-.56h-.1c-1.86,0-3.87,3.2-4.95,4.92-.21.34-.38.6-.48.73-4.33,5.37-11.59,14.36-21.01,18.19-.72.31-1.4.49-1.85.49h-.3c-.84,0-1.31-.51-1.43-1.53,0-1.29.71-2.82,1.53-3.27,8.75-4.93,11.86-10.29,11.86-13.67-.1-1.78-1.05-2.91-2.53-3.03-1.2,0-2.58.67-3.88,1.88-7.05,6.21-10.2,13.41-10.2,17.79v.41c0,1.76.51,2.94,1.59,3.7.82.7,1.79,1.06,2.87,1.06h.41c1,0,2.24-.34,3.43-.93,7.08-3.28,13.37-9.8,18.91-15.55.08-.08.16-.17.24-.25.13-.14.36-.39.44-.4.08,0,.18.19.32.48.75,2.16,1.48,3.45,2.32,4.94.43.75.87,1.53,1.34,2.49.65,1.22.99,2.14.99,2.74,0,.38-.1.62-.35.88-.32.35-.91.79-1.66,1.34-1.35.99-3.19,2.34-4.83,4.25-.62.83-.96,1.79-.96,2.77.1,1.52,1.14,3.12,2.94,3.22.52,0,1.04-.1,1.69-.32,4.52-1.78,6.91-5.91,7.42-8.26.04-.26.17-1.04.3-1.28.53-1.33,7.28-5.01,12.21-7.57-1.58,3.15-2.75,6.45-2.75,8.92,0,3.38,2.07,5.57,5.27,5.57.64,0,1.38-.16,2.15-.34l.34-.07c4.36-1.29,12.4-5.97,18.85-10.59-.49.84-.92,1.63-1.23,2.31-1.14,2.37-1.74,4.58-1.74,6.37,0,2.37,1.16,3.85,3.04,3.85,1.17,0,2.51-.61,3.88-1.77,6.33-5.42,14.76-15.63,19.79-21.72.51-.58,1.03-1.15,1.27-1.15.06,0,.11.16.11.41,0,2.82-4.68,14.65-6.21,18.54-.41,1.05-.55,1.41-.56,1.46-.75,1.66-2.56,3.49-5.07,6.02-5.22,5.27-13.1,13.23-20.08,28.35-.91,2.03-1.34,3.67-1.34,5.15,0,2.71,1.57,3.95,3.04,3.95.91,0,1.74-.35,2.56-1.05,7.37-5.95,14.25-20.14,19.28-30.51,1.07-2.21,2.08-4.29,2.98-6.06,2.65-5.3,16.28-15.17,24.51-19.8-2.47,6.04-4.8,12.02-4.8,12.61,0,1.39,1.39,2.22,2.73,2.22h.23c.44-.06,1.53-.3,2.07-1.11,3.1-5.19,13.74-19.19,16.66-19.47h.16c.35.06.35,1.32.35,2.64v.91c0,3.68,0,10.54,5.77,10.54h.42c4.8-.42,16.99-7.18,19.69-9.29.31-.31.46-.65.46-1.05,0-.78-.45-1.31-1.11-1.31h0ZM754.13,146.76c-.13.5-4.46,6.29-9.79,12.58-6.29,7.42-10.75,11.69-12.22,11.69-.09,0-.31,0-.31-.51,0-.76.53-2.9,4.13-8.72,2.75-4.63,11.99-15.33,16.86-15.62h.2c.51,0,1.12.11,1.12.59h0ZM691.05,168.94c-.54.95-3.2,3.56-4.15,3.79.06-.17.23-.46.52-.75.3-.27.59-.54.89-.82.6-.56,1.22-1.13,1.82-1.6.17-.11.33-.22.47-.32.17-.11.34-.23.44-.3h0ZM664.6,157.28c.16-.55,1.09-1.89,2.76-3.98,2.28-2.4,2.98-2.77,3.2-2.77h0c0,1.14-4.53,6.18-5.97,6.75h0ZM743.48,183.79c0,.09,0,.15-.09.34-1.71,5.14-6.54,13.48-10.22,18.71-3.36,4.77-5.5,6.91-6.12,6.91-.08,0-.11-.19-.11-.31,0-.75.54-2.62,3.12-7.31,3.68-6.95,6.16-9.92,9.9-14.42.79-.95,1.63-1.96,2.54-3.08.24-.25.82-.82.98-.85h0Z"/>
    </g>
    <g>
      <path class="cls-11" d="M324.26,100.47c0,6.44-2.33,11.49-6.98,15.15-4.66,3.67-11.07,5.5-19.26,5.5s-14.89-1.27-20.1-3.81v-11.19c3.3,1.56,6.81,2.77,10.52,3.67s7.17,1.34,10.38,1.34c4.69,0,8.15-.89,10.38-2.67s3.34-4.18,3.34-7.18c0-2.7-1.03-5-3.07-6.88-2.05-1.88-6.28-4.11-12.68-6.69-6.6-2.67-11.26-5.73-13.97-9.16-2.71-3.43-4.06-7.56-4.06-12.38,0-6.04,2.14-10.8,6.44-14.26,4.29-3.47,10.05-5.2,17.28-5.2s13.83,1.52,20.7,4.56l-3.76,9.65c-6.44-2.7-12.18-4.06-17.23-4.06-3.83,0-6.74.83-8.72,2.5s-2.97,3.87-2.97,6.61c0,1.88.4,3.49,1.19,4.83.79,1.34,2.1,2.6,3.91,3.79,1.82,1.19,5.08,2.76,9.81,4.71,5.31,2.21,9.21,4.27,11.69,6.19s4.29,4.08,5.45,6.49c1.15,2.41,1.73,5.25,1.73,8.52h0Z"/>
      <path class="cls-11" d="M402.54,83.83c0,11.78-2.95,20.95-8.84,27.48-5.89,6.54-14.23,9.81-25.03,9.81s-19.32-3.24-25.18-9.73-8.79-15.71-8.79-27.66,2.95-21.13,8.84-27.53c5.89-6.4,14.3-9.61,25.23-9.61s19.08,3.25,24.96,9.76c5.87,6.5,8.81,15.67,8.81,27.48h0ZM347.28,83.83c0,8.91,1.8,15.67,5.4,20.28,3.6,4.61,8.93,6.91,15.99,6.91s12.34-2.28,15.92-6.83c3.58-4.56,5.37-11.34,5.37-20.35s-1.77-15.62-5.32-20.2c-3.55-4.59-8.84-6.88-15.87-6.88s-12.45,2.29-16.07,6.88-5.42,11.32-5.42,20.2h0Z"/>
      <path class="cls-11" d="M448.9,56.84c-6.8,0-12.15,2.41-16.04,7.23-3.9,4.82-5.84,11.47-5.84,19.95s1.87,15.6,5.62,20.15c3.74,4.56,9.17,6.83,16.26,6.83,3.07,0,6.04-.3,8.91-.92,2.87-.61,5.86-1.4,8.96-2.35v10.15c-5.68,2.15-12.11,3.22-19.31,3.22-10.6,0-18.74-3.21-24.41-9.63-5.68-6.42-8.52-15.61-8.52-27.56,0-7.53,1.38-14.11,4.14-19.76,2.76-5.65,6.74-9.97,11.96-12.97,5.22-3,11.34-4.51,18.37-4.51,7.39,0,14.23,1.56,20.5,4.66l-4.26,9.86c-2.44-1.15-5.03-2.17-7.75-3.05-2.72-.88-5.59-1.31-8.59-1.31h0Z"/>
      <path class="cls-11" d="M482.37,120.12V47.73h11.83v72.39h-11.83Z"/>
      <path class="cls-11" d="M554.27,120.12h-40.95V47.73h40.95v10h-29.12v19.71h27.28v9.91h-27.28v22.73h29.12v10.05h0Z"/>
      <path class="cls-11" d="M594.92,120.12h-11.83v-62.25h-21.3v-10.15h54.42v10.15h-21.3v62.25h0Z"/>
      <path class="cls-11" d="M647.75,80.76l17.13-33.03h12.88l-24.11,44.32v28.08h-11.88v-27.68l-24.02-44.71h12.88l17.13,33.03h0Z"/>
      <path class="cls-11" d="M733.13,74.92c7.3,0,13.07,1.93,17.33,5.79,4.26,3.86,6.39,9.13,6.39,15.79,0,7.73-2.42,13.76-7.26,18.1-4.84,4.34-11.71,6.51-20.62,6.51-8.09,0-14.44-1.3-19.06-3.91v-10.55c2.67,1.52,5.74,2.69,9.21,3.52s6.69,1.24,9.66,1.24c5.25,0,9.24-1.17,11.99-3.52,2.74-2.34,4.11-5.77,4.11-10.3,0-8.65-5.51-12.97-16.54-12.97-1.56,0-3.47.16-5.75.47s-4.27.67-5.99,1.06l-5.2-3.07,2.77-35.36h37.64v10.35h-27.38l-1.63,17.92c1.15-.2,2.57-.43,4.23-.69,1.67-.26,3.7-.4,6.12-.4h0Z"/>
      <path class="cls-11" d="M771.55,120.12V47.73h11.83v72.39h-11.83Z"/>
      <path class="cls-11" d="M843.75,47.73h12.28l-25.35,72.39h-12.48l-25.25-72.39h12.18l15.1,45.01c.79,2.15,1.63,4.91,2.53,8.3.89,3.38,1.47,5.9,1.73,7.55.43-2.51,1.09-5.41,1.98-8.72.89-3.3,1.62-5.75,2.18-7.33l15.1-44.81h0Z"/>
      <path class="cls-11" d="M906.54,120.12h-40.95V47.73h40.95v10h-29.12v19.71h27.28v9.91h-27.28v22.73h29.12v10.05h0Z"/>
    </g>
  </g>
  <g>
    <path class="cls-11" d="M252.9,118.72c-1.68,3.88-5.47,4.37-10.3,4.95-8.19,1.04-24.61,3.06-40.69,17.28,6.51-.64,10.76-2.17,13.73-3.24,2.05-.73,3.67-1.31,5.44-1.31,3.3,0,6.02,2.05,6.88,5.26.8,2.94-.18,6.24-3.21,10.76.18.09.34.18.52.31,4.07,2.63,8.96,6.64,13.06,10.7,6.42,6.36,8.29,9.94,7.19,13.69-.86,2.84-3.49,4.77-6.57,4.77-1.01,0-2.08-.21-3.27-.61-10.7-3.61-18.46-3.85-22.65-3.97-.49-.03-.98-.03-1.5-.06,0,0-.03,0-.09-.03-.28,0-.52-.03-.8-.06-2.45-.09-9.85.15-19.57,6.27-11.86,7.43-25.34,13.27-38.49,13.27-5.08,0-9.91-.89-14.37-2.6-5.23-2.02-9.26-5.6-11.68-10.12-4.53,7.89-13.73,12.54-25.22,12.54-3.03,0-6.27-.34-9.54-.98-10.85-2.14-20.91-6.91-29.2-12.02-12.96-6.7-20.09-6.24-20.09-6.24h-1.01c-10.76,0-17.98,2.23-21.86,3.46-2.02.61-3.21.98-4.62.98h-.73l-.58-.12c-2.94-.58-5.11-2.69-5.66-5.5-.76-3.98,1.59-7.74,8.92-14.43,4.16-3.76,8.9-7.52,11.13-8.92.15-.09.28-.18.43-.28-2.02-3.24-3.3-6.39-3.03-9.05.37-3.91,3.49-6.67,7.55-6.67,1.28,0,2.69.28,4.25.83,4.13,1.5,8.5,2.48,13.55,2.97-6.12-5.56-18.37-14.95-41.55-16.97C.4,122.81-.06,117.34,0,115.68c.21-4.71,4.53-7.89,14.4-10.64,7.25-2.02,15.74-3.18,23.27-3.18,4.89,0,9.44.46,13.51,1.38,2.32.55,4.65,1.22,6.97,2.05-12.78-14.21-27.88-24-45.06-29.14-4.34-1.31-5.9-4.98-5.47-7.83.95-6.54,9.02-7.46,17.58-7.46,2.87,0,6.15.12,9.75.4,6.88.52,13.09,1.53,18.68,3.12-6.94-4.4-13.24-7.06-17.28-8.78-4.1-1.71-6.15-2.57-7.43-4.98-1.19-2.26-1.1-5.05.24-7.25,1.31-2.2,3.67-3.52,6.24-3.52.43,0,.89.03,1.31.12,32.13,5.78,55.34,16.76,70.59,33.36.15-4.37.61-10.58,1.62-19.47,1.5-13.14,4.43-32.04,9.88-47.2,1.99-5.5,5.35-6.67,7.8-6.67,3.18,0,5.75,1.9,7.64,5.66,4.34,8.47,7.89,31.95,9.2,41.64,1.77,12.84,2.54,21.06,2.72,26.41,20.05-21.68,58.82-33.36,70.38-33.36,1.35,0,5.47,0,7.64,3.52,1.25,1.99,1.35,4.46.28,6.6-1.28,2.57-3.42,3.46-7.67,5.23-5.75,2.38-16.08,6.67-26.32,15.38,3.36-1.65,7.06-3.21,11.19-4.74,10.64-3.88,24.4-5.93,32.53-5.93,3.12,0,10.46,0,11.47,6.24.86,5.47-3.88,7.67-7.71,9.44-4.37,2.02-11.74,5.44-21.49,13.48-6.6,5.44-11,10.4-13.82,13.85,5.5-1.25,10.64-1.71,15.14-1.71,17.52,0,31.58,6.67,34.24,10.24,1.5,2.05,1.83,4.59.89,6.79h0Z"/>
    <g>
      <path class="cls-12" d="M88.51,123.4c-1.28,0-7.03-7.46-18.89-13.94-1.19-.64-18.46-28.34-54.79-39.2-2.57-.76-1.68-3.3,10.37-3.3,2.57,0,5.63.12,9.3.4,30.21,2.23,48.49,14.15,54.27,55,.09.7.03,1.04-.24,1.04h0Z"/>
      <path class="cls-1" d="M90.07,139.6h-.37c-1.16,0-3.24-.28-7.03-.28-1.07,0-2.32.03-3.73.09-6.79.28-14.07,1.1-17.43,1.1-.7,0-1.22-.03-1.53-.12-2.72-.73-14.77-19.87-50.2-22.93-12.1-1.07,7.92-9.51,27.88-9.51,4.16,0,8.32.37,12.17,1.25,25.19,5.66,45.12,29.99,40.24,30.39h0Z"/>
    </g>
    <g>
      <path class="cls-3" d="M193.95,140.09c-.06.03-.83.06-2.11.06-6.94,0-28.89-.61-29.07-.67-1.41-.52-.31-1.9.49-2.87,18.34-22.71,38.55-28.8,54.51-28.8s28.28,6.36,29.32,7.77c3.09,4.19-26.29-2.6-53.14,24.52h0Z"/>
      <path class="cls-2" d="M239.59,67.6c.37,2.29-10.09,3.27-27.03,17.25-13.3,10.95-18.07,19.81-19.14,20.21-17.76,6.51-26.97,18.13-28.62,18.13-.24,0-.34-.28-.24-.83,3.76-26.72,10.64-39.83,39.2-50.29,10.21-3.73,23.2-5.56,30.42-5.56,3.24,0,5.29.37,5.41,1.1h0Z"/>
    </g>
    <g>
      <path class="cls-10" d="M42.55,171.16h-1.1c-15.69,0-24.61,4.43-26.48,4.43h-.15c-4.74-.95,12.32-15.01,16.57-17.73.12-.09.28-.15.4-.15,1.1,0,2.14,3.46,11.28,12.14.49.49.15,1.31-.52,1.31h0Z"/>
      <path class="cls-10" d="M238.93,175.77c-.31,0-.76-.09-1.31-.28-19.72-6.64-30.39-2.75-27.36-5.66,9.2-8.78,10.18-12.14,11.25-12.14.15,0,.28.06.43.15,9.02,5.63,20.79,17.91,17,17.91h0Z"/>
      <path class="cls-4" d="M152.55,190.57c-4.16,0-8.26-.67-12.17-2.2-14.95-5.75-14.28-27.09,5.87-37.3,7.64-3.88,15.56-4.89,23.45-4.89,8.65,0,17.3,1.22,25.62,1.22,1.22,0,2.42-.03,3.61-.09,13.45-.67,19.81-4.8,22.13-4.8.52,0,.83.21.98.73,1.65,6.21-36.75,47.33-69.49,47.33h0Z"/>
      <path class="cls-9" d="M218.99,47.73c-1.04,2.08-25.16,7.06-43.53,30.11-21.22,26.57-16.54,56.38-22.01,62.64-1.9,2.17-9.08,1.96-18.46,10.03-.12.12-.28.18-.43.18-3.94,0-10.27-43.94,15.77-72.52,18.65-20.45,56.13-31.74,66.22-31.74,1.93,0,2.87.43,2.45,1.28h0Z"/>
      <path class="cls-7" d="M139.78,80.75c-12.26,16.78-12.81,25.07-13.27,25.07s-.8-8.41-12.96-25.07c-.92-1.25,1.13-44.6,11-72.06.64-1.77,1.35-2.6,2.05-2.6,6.67,0,15.5,71.48,13.18,74.66h0Z"/>
      <path class="cls-5" d="M126.57,159.84c-.21,0-.4-.12-.58-.37-5.75-9.54-15.62-15.72-26.45-18.37-3.88-.95.52-35.28-21.89-63.35-18.1-22.65-42.28-28.04-43.32-29.99-.4-.76.12-1.8,1.07-1.8h.24c101.05,18.25,82.85,84.93,92.7,109.91.58,1.47-.76,3.97-1.77,3.97h0Z"/>
      <path class="cls-8" d="M101.28,190.38c-2.6,0-5.38-.28-8.35-.86-35.43-6.97-68.91-46.68-59.92-46.68.55,0,1.28.15,2.17.46,8.29,3.03,16.66,3.76,24.89,3.76s15.96-.7,23.51-.7c12.14,0,23.33,1.83,32.59,11.5,13.97,14.55,6.15,32.53-14.89,32.53Z"/>
    </g>
  </g>
</svg>