<?xml version="1.0" encoding="UTF-8"?>
<svg id="Layer_1" data-name="Layer 1" xmlns="http://www.w3.org/2000/svg" xmlns:xlink="http://www.w3.org/1999/xlink" viewBox="0 0 253.42 196.7">
  <defs>
    <style>
      .cls-1 {
        fill: url(#linear-gradient-2);
      }

      .cls-2 {
        fill: url(#linear-gradient-4);
      }

      .cls-3 {
        fill: url(#linear-gradient-3);
      }

      .cls-4 {
        fill: url(#linear-gradient-5);
      }

      .cls-5 {
        fill: url(#linear-gradient-8);
      }

      .cls-6 {
        fill: url(#linear-gradient-7);
      }

      .cls-7 {
        fill: url(#linear-gradient-9);
      }

      .cls-8 {
        fill: url(#linear-gradient-6);
      }

      .cls-9 {
        fill: #d37877;
      }

      .cls-10 {
        fill: #002e3b;
      }

      .cls-11 {
        fill: url(#linear-gradient);
      }
    </style>
    <linearGradient id="linear-gradient" x1="13.65" y1="1472.04" x2="88.79" y2="1472.04" gradientTransform="translate(0 1567.21) scale(1 -1)" gradientUnits="userSpaceOnUse">
      <stop offset=".07" stop-color="#d37877"/>
      <stop offset=".26" stop-color="#ca7177"/>
      <stop offset=".57" stop-color="#b15e7a"/>
      <stop offset=".97" stop-color="#8a3f7e"/>
      <stop offset="1" stop-color="#873d7f"/>
    </linearGradient>
    <linearGradient id="linear-gradient-2" x1="6.1" y1="1442.98" x2="90.81" y2="1442.98" xlink:href="#linear-gradient"/>
    <linearGradient id="linear-gradient-3" x1="162.09" y1="1443.23" x2="247.31" y2="1443.23" gradientTransform="translate(0 1567.21) scale(1 -1)" gradientUnits="userSpaceOnUse">
      <stop offset="0" stop-color="#873d7f"/>
      <stop offset=".03" stop-color="#8a3f7e"/>
      <stop offset=".43" stop-color="#b15e7a"/>
      <stop offset=".74" stop-color="#ca7177"/>
      <stop offset=".93" stop-color="#d37877"/>
    </linearGradient>
    <linearGradient id="linear-gradient-4" x1="164.53" y1="1472.36" x2="239.6" y2="1472.36" xlink:href="#linear-gradient-3"/>
    <linearGradient id="linear-gradient-5" x1="23.09" y1="1400.68" x2="227.36" y2="1400.68" gradientTransform="translate(0 1567.21) scale(1 -1)" gradientUnits="userSpaceOnUse">
      <stop offset="0" stop-color="#d37877"/>
      <stop offset=".5" stop-color="#ac9dc2"/>
      <stop offset="1" stop-color="#d37877"/>
    </linearGradient>
    <linearGradient id="linear-gradient-6" x1="23.09" y1="1468.64" x2="227.36" y2="1468.64" xlink:href="#linear-gradient-5"/>
    <linearGradient id="linear-gradient-7" x1="23.09" y1="1511.26" x2="227.36" y2="1511.26" xlink:href="#linear-gradient-5"/>
    <linearGradient id="linear-gradient-8" x1="23.09" y1="1464.31" x2="227.36" y2="1464.31" xlink:href="#linear-gradient-5"/>
    <linearGradient id="linear-gradient-9" x1="23.09" y1="1400.6" x2="227.36" y2="1400.6" xlink:href="#linear-gradient-5"/>
  </defs>
  <path class="cls-10" d="M252.9,118.72c-1.68,3.88-5.47,4.37-10.3,4.95-8.19,1.04-24.61,3.06-40.69,17.28,6.51-.64,10.76-2.17,13.73-3.24,2.05-.73,3.67-1.31,5.44-1.31,3.3,0,6.02,2.05,6.88,5.26.8,2.94-.18,6.24-3.21,10.76.18.09.34.18.52.31,4.07,2.63,8.96,6.64,13.06,10.7,6.42,6.36,8.29,9.94,7.19,13.69-.86,2.84-3.49,4.77-6.57,4.77-1.01,0-2.08-.21-3.27-.61-10.7-3.61-18.46-3.85-22.65-3.97-.49-.03-.98-.03-1.5-.06,0,0-.03,0-.09-.03-.28,0-.52-.03-.8-.06-2.45-.09-9.85.15-19.57,6.27-11.86,7.43-25.34,13.27-38.49,13.27-5.08,0-9.91-.89-14.37-2.6-5.23-2.02-9.26-5.6-11.68-10.12-4.53,7.89-13.73,12.54-25.22,12.54-3.03,0-6.27-.34-9.54-.98-10.85-2.14-20.91-6.91-29.2-12.02-12.96-6.7-20.09-6.24-20.09-6.24h-1.01c-10.76,0-17.98,2.23-21.86,3.46-2.02.61-3.21.98-4.62.98h-.73l-.58-.12c-2.94-.58-5.11-2.69-5.66-5.5-.76-3.98,1.59-7.74,8.92-14.43,4.16-3.76,8.9-7.52,11.13-8.92.15-.09.28-.18.43-.28-2.02-3.24-3.3-6.39-3.03-9.05.37-3.91,3.49-6.67,7.55-6.67,1.28,0,2.69.28,4.25.83,4.13,1.5,8.5,2.48,13.55,2.97-6.12-5.56-18.37-14.95-41.55-16.97C.4,122.81-.06,117.34,0,115.68c.21-4.71,4.53-7.89,14.4-10.64,7.25-2.02,15.74-3.18,23.27-3.18,4.89,0,9.44.46,13.51,1.38,2.32.55,4.65,1.22,6.97,2.05-12.78-14.21-27.88-24-45.06-29.14-4.34-1.31-5.9-4.98-5.47-7.83.95-6.54,9.02-7.46,17.58-7.46,2.87,0,6.15.12,9.75.4,6.88.52,13.09,1.53,18.68,3.12-6.94-4.4-13.24-7.06-17.28-8.78-4.1-1.71-6.15-2.57-7.43-4.98-1.19-2.26-1.1-5.05.24-7.25,1.31-2.2,3.67-3.52,6.24-3.52.43,0,.89.03,1.31.12,32.13,5.78,55.34,16.76,70.59,33.36.15-4.37.61-10.58,1.62-19.47,1.5-13.14,4.43-32.04,9.88-47.2,1.99-5.5,5.35-6.67,7.8-6.67,3.18,0,5.75,1.9,7.64,5.66,4.34,8.47,7.89,31.95,9.2,41.64,1.77,12.84,2.54,21.06,2.72,26.41,20.05-21.68,58.82-33.36,70.38-33.36,1.35,0,5.47,0,7.64,3.52,1.25,1.99,1.35,4.46.28,6.6-1.28,2.57-3.42,3.46-7.67,5.23-5.75,2.38-16.08,6.67-26.32,15.38,3.36-1.65,7.06-3.21,11.19-4.74,10.64-3.88,24.4-5.93,32.53-5.93,3.12,0,10.46,0,11.47,6.24.86,5.47-3.88,7.67-7.71,9.44-4.37,2.02-11.74,5.44-21.49,13.48-6.6,5.44-11,10.4-13.82,13.85,5.5-1.25,10.64-1.71,15.14-1.71,17.52,0,31.58,6.67,34.24,10.24,1.5,2.05,1.83,4.59.89,6.79h0Z"/>
  <g>
    <path class="cls-11" d="M88.51,123.4c-1.28,0-7.03-7.46-18.89-13.94-1.19-.64-18.46-28.34-54.79-39.2-2.57-.76-1.68-3.3,10.37-3.3,2.57,0,5.63.12,9.3.4,30.21,2.23,48.49,14.15,54.27,55,.09.7.03,1.04-.24,1.04h0Z"/>
    <path class="cls-1" d="M90.07,139.6h-.37c-1.16,0-3.24-.28-7.03-.28-1.07,0-2.32.03-3.73.09-6.79.28-14.07,1.1-17.43,1.1-.7,0-1.22-.03-1.53-.12-2.72-.73-14.77-19.87-50.2-22.93-12.1-1.07,7.92-9.51,27.88-9.51,4.16,0,8.32.37,12.17,1.25,25.19,5.66,45.12,29.99,40.24,30.39h0Z"/>
  </g>
  <g>
    <path class="cls-3" d="M193.95,140.09c-.06.03-.83.06-2.11.06-6.94,0-28.89-.61-29.07-.67-1.41-.52-.31-1.9.49-2.87,18.34-22.71,38.55-28.8,54.51-28.8s28.28,6.36,29.32,7.77c3.09,4.19-26.29-2.6-53.14,24.52h0Z"/>
    <path class="cls-2" d="M239.59,67.6c.37,2.29-10.09,3.27-27.03,17.25-13.3,10.95-18.07,19.81-19.14,20.21-17.76,6.51-26.97,18.13-28.62,18.13-.24,0-.34-.28-.24-.83,3.76-26.72,10.64-39.83,39.2-50.29,10.21-3.73,23.2-5.56,30.42-5.56,3.24,0,5.29.37,5.41,1.1h0Z"/>
  </g>
  <g>
    <path class="cls-9" d="M42.55,171.16h-1.1c-15.69,0-24.61,4.43-26.48,4.43h-.15c-4.74-.95,12.32-15.01,16.57-17.73.12-.09.28-.15.4-.15,1.1,0,2.14,3.46,11.28,12.14.49.49.15,1.31-.52,1.31h0Z"/>
    <path class="cls-9" d="M238.93,175.77c-.31,0-.76-.09-1.31-.28-19.72-6.64-30.39-2.75-27.36-5.66,9.2-8.78,10.18-12.14,11.25-12.14.15,0,.28.06.43.15,9.02,5.63,20.79,17.91,17,17.91h0Z"/>
    <path class="cls-4" d="M152.55,190.57c-4.16,0-8.26-.67-12.17-2.2-14.95-5.75-14.28-27.09,5.87-37.3,7.64-3.88,15.56-4.89,23.45-4.89,8.65,0,17.3,1.22,25.62,1.22,1.22,0,2.42-.03,3.61-.09,13.45-.67,19.81-4.8,22.13-4.8.52,0,.83.21.98.73,1.65,6.21-36.75,47.33-69.49,47.33h0Z"/>
    <path class="cls-8" d="M218.99,47.73c-1.04,2.08-25.16,7.06-43.53,30.11-21.22,26.57-16.54,56.38-22.01,62.64-1.9,2.17-9.08,1.96-18.46,10.03-.12.12-.28.18-.43.18-3.94,0-10.27-43.94,15.77-72.52,18.65-20.45,56.13-31.74,66.22-31.74,1.93,0,2.87.43,2.45,1.28h0Z"/>
    <path class="cls-6" d="M139.78,80.75c-12.26,16.78-12.81,25.07-13.27,25.07s-.8-8.41-12.96-25.07c-.92-1.25,1.13-44.6,11-72.06.64-1.77,1.35-2.6,2.05-2.6,6.67,0,15.5,71.48,13.18,74.66h0Z"/>
    <path class="cls-5" d="M126.57,159.84c-.21,0-.4-.12-.58-.37-5.75-9.54-15.62-15.72-26.45-18.37-3.88-.95.52-35.28-21.89-63.35-18.1-22.65-42.28-28.04-43.32-29.99-.4-.76.12-1.8,1.07-1.8h.24c101.05,18.25,82.85,84.93,92.7,109.91.58,1.47-.76,3.97-1.77,3.97h0Z"/>
    <path class="cls-7" d="M101.28,190.38c-2.6,0-5.38-.28-8.35-.86-35.43-6.97-68.91-46.68-59.92-46.68.55,0,1.28.15,2.17.46,8.29,3.03,16.66,3.76,24.89,3.76s15.96-.7,23.51-.7c12.14,0,23.33,1.83,32.59,11.5,13.97,14.55,6.15,32.53-14.89,32.53Z"/>
  </g>
</svg>