<?xml version="1.0" encoding="UTF-8"?>
<svg id="Layer_1" data-name="Layer 1" xmlns="http://www.w3.org/2000/svg" xmlns:xlink="http://www.w3.org/1999/xlink" viewBox="0 0 153.86 153.86">
  <defs>
    <style>
      .cls-1 {
        fill: url(#New_Gradient_Swatch_copy_6-10);
      }

      .cls-2 {
        fill: url(#New_Gradient_Swatch_copy_6-5);
      }

      .cls-3 {
        fill: url(#New_Gradient_Swatch_copy_6-13);
      }

      .cls-4 {
        fill: url(#New_Gradient_Swatch_copy_6);
      }

      .cls-5 {
        fill: url(#New_Gradient_Swatch_copy_6-4);
      }

      .cls-6 {
        fill: url(#New_Gradient_Swatch_copy_6-11);
      }

      .cls-7 {
        fill: url(#New_Gradient_Swatch_copy_6-7);
      }

      .cls-8 {
        fill: url(#New_Gradient_Swatch_copy_6-9);
      }

      .cls-9 {
        fill: url(#New_Gradient_Swatch_copy_6-6);
      }

      .cls-10 {
        fill: url(#New_Gradient_Swatch_copy_6-8);
      }

      .cls-11 {
        fill: url(#New_Gradient_Swatch_copy_6-3);
      }

      .cls-12 {
        fill: url(#New_Gradient_Swatch_copy_6-12);
      }

      .cls-13 {
        fill: url(#New_Gradient_Swatch_copy_6-2);
      }

      .cls-14 {
        fill: #002e3b;
      }
    </style>
    <linearGradient id="New_Gradient_Swatch_copy_6" data-name="New Gradient Swatch copy 6" x1="45.91" y1="121.37" x2="66.61" y2="66.98" gradientUnits="userSpaceOnUse">
      <stop offset="0" stop-color="#d37877"/>
      <stop offset="1" stop-color="#ac9dc2"/>
    </linearGradient>
    <linearGradient id="New_Gradient_Swatch_copy_6-2" data-name="New Gradient Swatch copy 6" x1="45.66" y1="121.28" x2="66.36" y2="66.88" xlink:href="#New_Gradient_Swatch_copy_6"/>
    <linearGradient id="New_Gradient_Swatch_copy_6-3" data-name="New Gradient Swatch copy 6" x1="41.01" y1="119.51" x2="61.71" y2="65.11" xlink:href="#New_Gradient_Swatch_copy_6"/>
    <linearGradient id="New_Gradient_Swatch_copy_6-4" data-name="New Gradient Swatch copy 6" x1="36.14" y1="117.65" x2="56.84" y2="63.26" xlink:href="#New_Gradient_Swatch_copy_6"/>
    <linearGradient id="New_Gradient_Swatch_copy_6-5" data-name="New Gradient Swatch copy 6" x1="75.76" y1="124.2" x2="65.89" y2="73.42" xlink:href="#New_Gradient_Swatch_copy_6"/>
    <linearGradient id="New_Gradient_Swatch_copy_6-6" data-name="New Gradient Swatch copy 6" x1="80.31" y1="123.32" x2="70.44" y2="72.53" xlink:href="#New_Gradient_Swatch_copy_6"/>
    <linearGradient id="New_Gradient_Swatch_copy_6-7" data-name="New Gradient Swatch copy 6" x1="84.64" y1="122.47" x2="74.78" y2="71.69" xlink:href="#New_Gradient_Swatch_copy_6"/>
    <linearGradient id="New_Gradient_Swatch_copy_6-8" data-name="New Gradient Swatch copy 6" x1="84.74" y1="122.46" x2="74.87" y2="71.67" xlink:href="#New_Gradient_Swatch_copy_6"/>
    <linearGradient id="New_Gradient_Swatch_copy_6-9" data-name="New Gradient Swatch copy 6" x1="116.12" y1="99.98" x2="70.63" y2="44.14" xlink:href="#New_Gradient_Swatch_copy_6"/>
    <linearGradient id="New_Gradient_Swatch_copy_6-10" data-name="New Gradient Swatch copy 6" x1="116.14" y1="99.96" x2="70.66" y2="44.13" xlink:href="#New_Gradient_Swatch_copy_6"/>
    <linearGradient id="New_Gradient_Swatch_copy_6-11" data-name="New Gradient Swatch copy 6" x1="116.17" y1="99.94" x2="70.68" y2="44.11" xlink:href="#New_Gradient_Swatch_copy_6"/>
    <linearGradient id="New_Gradient_Swatch_copy_6-12" data-name="New Gradient Swatch copy 6" x1="116.2" y1="99.92" x2="70.71" y2="44.09" xlink:href="#New_Gradient_Swatch_copy_6"/>
    <linearGradient id="New_Gradient_Swatch_copy_6-13" data-name="New Gradient Swatch copy 6" x1="116.22" y1="99.9" x2="70.73" y2="44.07" xlink:href="#New_Gradient_Swatch_copy_6"/>
  </defs>
  <path class="cls-14" d="M129.1,85.69l-46.52-57.31c-.84-1.04-2.04-1.69-3.37-1.83-1.33-.13-2.63.25-3.67,1.09l-9.96,8.09c-3.56-6.11-11.24-10.08-19.93-10.08-12.13,0-22,7.84-22,17.47s9.87,17.47,22,17.47c1.07,0,2.11-.07,3.14-.17l-19.12,49.93c-.69,1.82-.26,3.9,1.09,5.29l10.84,11.09c.95.96,2.24,1.51,3.57,1.51.12,0,.23-.01.34-.01l15.47-1.02h.01c1.94-.13,3.64-1.39,4.34-3.21l.7-1.85c.6.6,1.35,1.05,2.19,1.29l14.94,4.18c.44.12.9.18,1.35.18.97,0,1.95-.29,2.77-.84l12.9-8.61c1.61-1.08,2.46-3.03,2.16-4.95l-.31-1.96c.42.12.87.17,1.31.17.41,0,.82-.04,1.23-.15l15.02-3.84c1.41-.37,2.6-1.32,3.25-2.63l6.84-13.91c.87-1.75.63-3.86-.6-5.37ZM45.65,57.06c-10.19,0-18.48-6.26-18.48-13.95s8.29-13.95,18.48-13.95c7.55,0,14.38,3.56,17.17,8.81l-.56.45c-2.37-.77-4.95.36-6.02,2.59h-.01c-.92.34-1.72.94-2.31,1.75-.7.96-1.03,2.12-.93,3.3-1.22,1.46-1.51,3.52-.73,5.25l-2.01,5.29c-1.47.29-3,.45-4.59.45Z"/>
  <g>
    <path class="cls-4" d="M63.34,119.35l-1.29,3.38c-.21.54-.71.91-1.29.95l-15.47,1.01c-.44.03-.86-.13-1.16-.44l-10.84-11.08c-.4-.41-.53-1.03-.32-1.57l1.29-3.38,29.08,11.13Z"/>
    <polygon class="cls-13" points="64.08 115.85 64.08 115.86 35.52 104.93 40.45 92.02 61.57 100.1 61.57 100.11 64.08 115.85"/>
    <polygon class="cls-11" points="60.93 96.1 41.71 88.74 46.95 75.05 58.27 79.37 60.93 96.1"/>
    <polygon class="cls-5" points="57.63 75.36 48.22 71.75 53.48 57.97 54.95 58.54 57.63 75.36"/>
    <polygon class="cls-2" points="71.36 75.13 61.4 76.72 59.08 62.14 60.62 61.89 71.36 75.13"/>
    <polygon class="cls-9" points="84.59 91.43 77.35 92.59 73.33 93.23 64.27 94.68 62.06 80.83 61.96 80.2 67.81 79.26 73.92 78.28 77.4 82.58 77.83 83.09 78.69 84.17 79.97 85.74 84.59 91.43"/>
    <polygon class="cls-7" points="97.2 106.98 70.2 111.28 67 111.79 66.77 110.38 65.36 101.57 65.36 101.56 64.82 98.15 65.87 97.99 65.88 97.99 71.88 97.03 75.9 96.39 87.15 94.59 97.2 106.98"/>
    <path class="cls-10" d="M98.23,115.41l-12.89,8.61c-.36.24-.81.31-1.22.2l-14.94-4.18c-.55-.15-.97-.63-1.06-1.19l-.24-1.49-.34-2.08,1.2-.19,29.55-4.71.57,3.57c.09.57-.16,1.15-.64,1.47Z"/>
    <path class="cls-8" d="M126.54,89.5l-6.86,13.91c-.2.39-.54.67-.96.78l-15.02,3.84c-.55.14-1.15-.05-1.52-.5l-.95-1.18-1.33-1.62.94-.77,23.24-18.87,2.29,2.82c.36.44.43,1.07.17,1.59Z"/>
    <polygon class="cls-1" points="121.86 82.36 100.2 99.95 97.69 101.99 96.79 100.88 91.16 93.94 88.98 91.27 89.81 90.59 94.54 86.75 97.69 84.19 113.17 71.63 121.86 82.36"/>
    <polygon class="cls-6" points="110.95 68.91 97.05 80.19 93.9 82.74 86.76 88.54 81.42 81.95 78.87 78.79 77.94 77.64 77.52 77.14 80.38 74.81 82.12 73.41 85.85 70.37 91.24 66.01 94.39 63.45 101.71 57.51 110.95 68.91"/>
    <polygon class="cls-12" points="99.49 54.78 93.75 59.44 90.6 62 88.37 63.81 85.24 66.36 82.9 68.25 82.07 68.92 75.3 74.41 66.01 62.96 66.16 62.83 68.95 60.56 69.31 60.26 74.42 56.13 82.2 49.81 85.35 47.25 87.91 45.17 90.2 43.32 91.42 44.84 99.49 54.78"/>
    <path class="cls-3" d="M87.98,40.59l-.7.57-5.71,4.64-3.15,2.56-10.94,8.88-1.94,1.58h-.01l-1.73,1.41-1.72-2.13-.71-.88-3.81-4.7-1.33-1.65-.54-.66c-.52-.64-.42-1.57.22-2.09l.84-.68,1.15-.93,3.51-2.85,1.52-1.23,1.07-.87c.01.09.04.17.04.26v.11c.06.35.1.75.1,1.19,0,1.05-.15,2.09-.47,3.1-.03.1-.07.19-.1.29-1.51.24-2.66,1.54-2.66,3.12,0,.39.08.77.21,1.12.12.32.3.63.52.9h.01c.17.23.39.41.62.57l.04.03c.49.32,1.07.53,1.7.54h.06c1.74,0,3.16-1.42,3.16-3.16,0-.6-.16-1.15-.44-1.62.09-.25.17-.51.25-.77.41-1.32.62-2.71.62-4.12,0-.61-.04-1.18-.12-1.7-.08-.77-.24-1.56-.47-2.35l10.71-8.7c.27-.22.6-.32.93-.32h.15c.4.04.75.24,1.01.54l4.71,5.8,3.41,4.2Z"/>
  </g>
</svg>