<?xml version="1.0" encoding="UTF-8"?>
<svg id="Layer_1" data-name="Layer 1" xmlns="http://www.w3.org/2000/svg" xmlns:xlink="http://www.w3.org/1999/xlink" viewBox="0 0 153.86 153.86">
  <defs>
    <style>
      .cls-1 {
        fill: url(#New_Gradient_Swatch_copy_6);
      }

      .cls-2 {
        fill: #002e3b;
      }
    </style>
    <linearGradient id="New_Gradient_Swatch_copy_6" data-name="New Gradient Swatch copy 6" x1="23.6" y1="76.94" x2="130.26" y2="76.94" gradientUnits="userSpaceOnUse">
      <stop offset="0" stop-color="#d37877"/>
      <stop offset="1" stop-color="#ac9dc2"/>
    </linearGradient>
  </defs>
  <path class="cls-2" d="M134.63,59.47c0,8.31-3.24,16.13-9.12,22.02l-40.85,40.85c-2.13,2.13-4.93,3.2-7.73,3.2s-5.6-1.07-7.73-3.2l-40.86-40.86c-12.14-12.14-12.14-31.89,0-44.03,5.88-5.88,13.7-9.13,22.02-9.13,4.16,0,8.19.81,11.93,2.36,3.72,1.54,7.15,3.82,10.09,6.76l4.55,4.55,4.54-4.54c5.88-5.88,13.7-9.12,22.02-9.12,4.16,0,8.2.81,11.92,2.35,3.74,1.54,7.16,3.82,10.1,6.77,5.88,5.88,9.12,13.7,9.12,22.02Z"/>
  <path class="cls-1" d="M76.92,121.17c-1.75,0-3.4-.68-4.64-1.92l-40.86-40.86c-5.05-5.05-7.83-11.77-7.83-18.93s2.78-13.88,7.83-18.92c5.05-5.06,11.78-7.84,18.93-7.84s13.88,2.78,18.92,7.84l5.51,5.51c.57.57,1.33.88,2.13.88s1.57-.31,2.13-.88l5.5-5.51c5.06-5.06,11.78-7.84,18.93-7.84s13.87,2.78,18.93,7.84c5.06,5.06,7.84,11.78,7.84,18.93s-2.78,13.87-7.84,18.92l-40.86,40.86c-1.24,1.24-2.88,1.92-4.64,1.92Z"/>
</svg>