<?xml version="1.0" encoding="UTF-8"?>
<svg id="Layer_1" data-name="Layer 1" xmlns="http://www.w3.org/2000/svg" xmlns:xlink="http://www.w3.org/1999/xlink" viewBox="0 0 153.86 153.86">
  <defs>
    <style>
      .cls-1 {
        fill: url(#New_Gradient_Swatch_copy_6);
      }

      .cls-2 {
        fill: #002e3b;
      }

      .cls-3 {
        fill: url(#New_Gradient_Swatch_copy_6-2);
      }
    </style>
    <linearGradient id="New_Gradient_Swatch_copy_6" data-name="New Gradient Swatch copy 6" x1="95.45" y1="127.55" x2="95.45" y2="48.95" gradientUnits="userSpaceOnUse">
      <stop offset="0" stop-color="#d37877"/>
      <stop offset="1" stop-color="#ac9dc2"/>
    </linearGradient>
    <linearGradient id="New_Gradient_Swatch_copy_6-2" data-name="New Gradient Swatch copy 6" x1="52.46" y1="127.55" x2="52.46" y2="48.95" xlink:href="#New_Gradient_Swatch_copy_6"/>
  </defs>
  <path class="cls-2" d="M123.79,31.52c-.63-1.08-1.77-1.8-3.02-1.91-1.28-.11-2.52.4-3.33,1.37-4.87,5.77-12.79,8.17-21.17,10.7-14.02,4.24-29.86,9.06-35.52,30.96-3.68-2.12-7.45-4.02-10.99-5.79-6.22-3.1-12.08-6.03-15.43-9.25-.95-.93-2.3-1.31-3.61-1.01-1.29.3-2.34,1.21-2.79,2.45-8,21.72-5.73,42.29,6.06,55,6.16,6.64,14.12,10.21,22.26,10.21,2.57,0,5.17-.35,7.73-1.08,1.51-.43,2.96-1,4.33-1.67,4.28,1.56,8.57,2.35,12.83,2.35,11.45,0,22.54-5.59,31.72-16.32,16.15-18.88,24.66-52.47,10.93-76.02Z"/>
  <path class="cls-1" d="M110,105.1c-6.45,7.53-19.6,18.84-37.53,13.83,4.47-3.42,7.63-8.25,8.78-13.79.47-2.27.57-4.55.32-6.84,15.62-9.14,28.09-24.09,34.25-41.1.41-1.1-.16-2.34-1.28-2.74-1.11-.4-2.35.17-2.75,1.29-5.67,15.63-16.98,29.41-31.16,38.11-1.68-5.43-5.35-10.63-10.79-15.07-1.8-1.47-3.74-2.83-5.74-4.1,4.89-20.81,19.3-25.19,33.26-29.41,8.93-2.7,17.35-5.25,22.95-11.87.01-.01.05-.05.13-.05.09.01.11.05.12.08,12.72,21.8,4.43,54.19-10.55,71.69Z"/>
  <path class="cls-3" d="M77.57,104.39c-.32,1.55-.85,3.05-1.53,4.46-.27,0-.55.04-.81.15-3.74,1.52-8.32-.66-11.5-2.77-9.84-6.51-17.29-16.76-20.44-28.13-.31-1.14-1.49-1.81-2.64-1.49-1.14.31-1.8,1.49-1.49,2.64,3.42,12.35,11.51,23.49,22.2,30.56,4.04,2.67,7.76,4.01,11.11,4.01.04,0,.09-.01.13-.01-2.54,2.67-5.85,4.69-9.66,5.78-9.28,2.65-19.08-.38-26.21-8.07-10.8-11.66-12.78-30.78-5.28-51.15.01-.02.03-.08.11-.1h.05c.06,0,.11.04.13.05,3.76,3.62,9.87,6.68,16.34,9.9,6.76,3.38,13.75,6.87,19.4,11.48,8.16,6.66,11.75,14.72,10.1,22.7Z"/>
</svg>