<svg id="Group_18" data-name="Group 18" xmlns="http://www.w3.org/2000/svg" xmlns:xlink="http://www.w3.org/1999/xlink" width="34.819" height="27.95" viewBox="0 0 34.819 27.95">
  <defs>
    <clipPath id="clip-path">
      <rect id="Rectangle_8" data-name="Rectangle 8" width="34.819" height="27.95" transform="translate(0 0)" fill="#002d3a"/>
    </clipPath>
  </defs>
  <g id="Group_14" data-name="Group 14" transform="translate(0 0)" clip-path="url(#clip-path)">
    <path id="Path_2" data-name="Path 2" d="M34.819,13.976a2.333,2.333,0,0,1-.721,1.7l-12.2,11.8a1.671,1.671,0,0,1-1.16.471,1.647,1.647,0,0,1-.653-.131,1.663,1.663,0,0,1-1.015-1.537l0-4.963H1.564A1.568,1.568,0,0,1,0,19.751V8.034A1.568,1.568,0,0,1,1.564,6.466h17.5l0-4.8a1.669,1.669,0,0,1,2.828-1.2L34.1,12.281a2.331,2.331,0,0,1,.721,1.7" transform="translate(0 0)" fill="#002d3a"/>
  </g>
</svg>
